<svg height="80" viewBox="0 0 60 59" width="80" xmlns="http://www.w3.org/2000/svg"><g id="Page-1" fill="none" fill-rule="evenodd"><g id="015---Dark-Web" fill-rule="nonzero"><path id="Shape" d="m44.42 51h10.58c2.209139 0 4-1.790861 4-4v-38h-58v38c0 2.209139 1.790861 4 4 4z" fill="#607d8b"/><path id="Shape" d="m56 9v38c0 2.209139-1.790861 4-4 4h3c2.209139 0 4-1.790861 4-4v-38z" fill="#37474f"/><path id="Shape" d="m3 1h54c1.1045695 0 2 .8954305 2 2v6h-58v-6c0-1.1045695.8954305-2 2-2z" fill="#02a9f4"/><path id="Shape" d="m57 1h-3c1.1045695 0 2 .8954305 2 2v6h3v-6c0-1.1045695-.8954305-2-2-2z" fill="#0377bc"/><circle id="Oval" cx="5" cy="5" fill="#ffeb3a" r="1"/><circle id="Oval" cx="9" cy="5" fill="#e91e63" r="1"/><circle id="Oval" cx="13" cy="5" fill="#ff9801" r="1"/><g fill="#f5f5f5"><path id="Shape" d="m55 6h-6c-.5522847 0-1-.44771525-1-1s.4477153-1 1-1h6c.5522847 0 1 .44771525 1 1s-.4477153 1-1 1z"/><path id="Shape" d="m5 17c-.55228475 0-1-.4477153-1-1v-3c0-.5522847.44771525-1 1-1s1 .4477153 1 1v3c0 .5522847-.44771525 1-1 1z"/><path id="Shape" d="m5 36c-.55228475 0-1-.4477153-1-1v-15c0-.5522847.44771525-1 1-1s1 .4477153 1 1v15c0 .5522847-.44771525 1-1 1z"/></g><ellipse id="Oval" cx="30" cy="20" fill="#009688" rx="9" ry="6"/><path id="Shape" d="m30 14c-.501205.0044772-1.0018554.0345162-1.5.09 4.26.48 7.5 2.91 7.5 5.91s-3.24 5.43-7.5 5.91c.4981446.0554838.998795.0855228 1.5.09 5 0 9-2.69 9-6s-4-6-9-6z" fill="#00695c"/><path id="Shape" d="m57 0h-54c-1.65685425 0-3 1.34314575-3 3v44c0 2.7614237 2.23857625 5 5 5h12.59c1.1916974 1.2616101 2.1831871 2.6982584 2.94 4.26l-.25.61c-.2071349.5080961.033831 1.0881994.54 1.3.1186794.0559814.2488235.0833801.38.08.4037019-.0020151.7665964-.2465745.92-.62l.26-.61c2.4604447-.7846098 5.0398204-1.1298806 7.62-1.02 2.5789991-.1163385 5.1583474.2221586 7.62 1l.26.61c.1534036.3734255.5162981.6179849.92.62.1311765.0033801.2613206-.0240186.38-.08.506169-.2118006.7471349-.7919039.54-1.3l-.25-.61c.7585665-1.5546848 1.7499824-2.9844819 2.94-4.24h12.59c2.7614237 0 5-2.2385763 5-5v-44c0-1.65685425-1.3431458-3-3-3zm-55 3c0-.55228475.44771525-1 1-1h54c.5522847 0 1 .44771525 1 1v5h-56zm39 15h-1.41c-.3110124-.748185-.7663449-1.4277856-1.34-2h1.75c.5522847 0 1 .4477153 1 1zm-3 2c0 2.71-3.66 5-8 5s-8-2.29-8-5 3.66-5 8-5 8 2.29 8 5zm-17.59-2h-1.41v-1c0-.5522847.4477153-1 1-1h1.75c-.5736551.5722144-1.0289876 1.251815-1.34 2zm-3.14 30.73c-1.5585156-1.5941249-3.2814549-3.0187343-5.14-4.25l5.87-2.43c1.2335786.6951726 2.3532583 1.5754027 3.32 2.61 1.0542602.9740489 1.9575098 2.0997405 2.68 3.34l-2.44 5.89c-1.2426821-1.8674797-2.6807988-3.5972426-4.29-5.16zm12.73-10.12 3.26 7.87c-2.1615533-.3200121-4.3584467-.3200121-6.52 0zm-5.11 7.11c-.6481422-.8778459-1.3600685-1.7067554-2.13-2.48-.7710137-.7723397-1.6001103-1.4844267-2.48-2.13l7.87-3.26zm7-7.87 7.87 3.26c-.8798897.6455733-1.7089863 1.3576603-2.48 2.13-.7699315.7732446-1.4818578 1.6021541-2.13 2.48zm10.9 2.35c-.3817824-1.3660807-.5537456-2.782248-.51-4.2-.0437456-1.417752.1282176-2.8339193.51-4.2l5.88-2.44c-.4541531 2.1839315-.6787073 4.4093642-.67 6.64-.0218677 2.2292358.189279 4.4546544.63 6.64zm-2.27-.94-7.91-3.26 7.87-3.26c-.3200121 2.1615533-.3200121 4.3584467 0 6.52zm-21 0c.1587244-1.0794336.2389349-2.1689596.24-3.26-.0010651-1.0910404-.0812756-2.1805664-.24-3.26l7.87 3.26zm-2.27-7.46c.3817824 1.3660807.5537456 2.782248.51 4.2.0437456 1.417752-.1282176 2.8339193-.51 4.2l-5.88 2.44c.440721-2.1853456.6518677-4.4107642.63-6.64.0218677-2.2292358-.189279-4.4546544-.63-6.64zm12.75 22.2c-2.2259403-.022195-4.4480776.1889584-6.63.63l2.43-5.88c1.3660807-.3817824 2.782248-.5537456 4.2-.51 1.417752-.0437456 2.8339193.1282176 4.2.51l2.43 5.88c-2.1819224-.4410416-4.4040597-.652195-6.63-.63zm6-6c.7057787-1.2291742 1.5885651-2.3478196 2.62-3.32.9834915-1.0466108 2.1237875-1.9338825 3.38-2.63l5.89 2.43c-3.6952321 2.5085272-6.8814728 5.6947679-9.39 9.39zm22-1c0 1.6568542-1.3431458 3-3 3h-10.71c1.7199585-1.84897 3.7506831-3.382167 6-4.53l.62.26c.5108634.2098682 1.0951318-.0341366 1.305-.545s-.0341366-1.0951318-.545-1.305l-.67-.26c-.7778414-2.4616526-1.1163385-5.0410009-1-7.62-.1163385-2.5789991.2221586-5.1583474 1-7.62l.61-.26c.5108634-.2098682.7548682-.7941366.545-1.305s-.7941366-.7548682-1.305-.545l-20.85 8.65-20.87-8.65c-.51086339-.2098682-1.09513176.0341366-1.30499996.545s.03413659 1.0951318.54499996 1.305l.61.26c.78460984 2.4604447 1.1298806 5.0398204 1.02 7.62.1163385 2.5789991-.22215863 5.1583474-1 7.62l-.61.26c-.51086337.2098682-.75486817.7941366-.54499997 1.305s.79413658.7548682 1.30499997.545l.62-.26c2.2493169 1.147833 4.2800415 2.68103 6 4.53h-10.77c-1.65685425 0-3-1.3431458-3-3v-37h27v3c-1.4450384.1028919-2.8636411.4406545-4.2 1h-4.8c-1.6568542 0-3 1.3431458-3 3v1h-1c-1.6568542 0-3 1.3431458-3 3v1c0 .5522847.4477153 1 1 1s1-.4477153 1-1v-1c0-.5522847.4477153-1 1-1h4c.0014634.3362704.0383334.6714519.11 1h-1.11c-1.6568542 0-3 1.3431458-3 3v1c0 .5522847.4477153 1 1 1s1-.4477153 1-1v-1c0-.5522847.4477153-1 1-1h1.94c.2462162.3574752.5239955.6921491.83 1-1.5664209.1204399-2.7746234 1.4289625-2.77 3v1c0 .5522847.4477153 1 1 1s1-.4477153 1-1v-1c0-.5522847.4477153-1 1-1h2.8c3.3380667 1.3353847 7.0619333 1.3353847 10.4 0h2.8c.5522847 0 1 .4477153 1 1v1c0 .5522847.4477153 1 1 1s1-.4477153 1-1v-1c.0046234-1.5710375-1.2035791-2.8795601-2.77-3 .3060045-.3078509.5837838-.6425248.83-1h1.94c.5522847 0 1 .4477153 1 1v1c0 .5522847.4477153 1 1 1s1-.4477153 1-1v-1c0-1.6568542-1.3431458-3-3-3h-1.11c.0716666-.3285481.1085366-.6637296.11-1h4c.5522847 0 1 .4477153 1 1v1c0 .5522847.4477153 1 1 1s1-.4477153 1-1v-1c0-1.6568542-1.3431458-3-3-3h-1v-1c0-1.6568542-1.3431458-3-3-3h-4.8c-1.3363589-.5593455-2.7549616-.8971081-4.2-1v-3h27z" fill="#000"/><circle id="Oval" cx="28" cy="22" fill="#000" r="1"/><circle id="Oval" cx="32" cy="22" fill="#000" r="1"/></g></g></svg>