<?xml version="1.0" encoding="iso-8859-1"?>
<!-- Generator: Adobe Illustrator 19.0.0, SVG Export Plug-In . SVG Version: 6.00 Build 0)  -->
<svg version="1.1" id="Capa_1" xmlns="http://www.w3.org/2000/svg" xmlns:xlink="http://www.w3.org/1999/xlink" x="0px" y="0px"
	 viewBox="0 0 512 512" style="enable-background:new 0 0 512 512;" xml:space="preserve">
<circle style="fill:#004EB0;" cx="256" cy="256" r="256"/>
<path style="fill:#003C7D;" d="M512,256c0-0.425-0.014-0.846-0.016-1.27L339.562,82.008C333.996,75.871,325.973,72,317.087,72
	H194.913c-16.704,0-30.371,13.667-30.371,30.371v55.862c0,7.772,2.961,14.884,7.809,20.269l34.503,34.546h-11.941
	c-11.914,0-22.279,6.955-27.246,17.003h-16.443c-22.514,0-40.831,18.317-40.831,40.831v46.227
	c-14.954,4.584-25.86,18.517-25.86,34.953c0,9.37,3.533,18.134,9.655,24.762l133.86,133.65C237.231,511.472,246.553,512,256,512
	C397.385,512,512,397.385,512,256z"/>
<path style="fill:#00B4FD;" d="M131.779,326.579h-21.385v-55.696c0-22.514,18.317-40.831,40.831-40.831h19.53v21.385h-19.53
	c-10.723,0-19.446,8.724-19.446,19.447V326.579z"/>
<path style="fill:#FFFFFF;" d="M137.782,384.578l-9.779-19.018c5.09-2.617,8.251-7.789,8.251-13.496
	c0-8.363-6.804-15.167-15.167-15.167s-15.167,6.804-15.167,15.167c0,5.708,3.162,10.879,8.252,13.496l-9.78,19.018
	c-12.248-6.298-19.857-18.757-19.857-32.514c0-20.155,16.397-36.552,36.552-36.552s36.552,16.397,36.552,36.552
	C157.639,365.821,150.03,378.279,137.782,384.578z"/>
<path style="fill:#0083F4;" d="M401.606,326.579h-21.385v-55.696c0-10.723-8.723-19.447-19.446-19.447h-19.53v-21.385h19.53
	c22.514,0,40.831,18.317,40.831,40.831L401.606,326.579L401.606,326.579z"/>
<path style="fill:#E0E0E2;" d="M407.609,384.578l-9.779-19.018c5.09-2.617,8.251-7.789,8.251-13.496
	c0-8.363-6.804-15.167-15.167-15.167s-15.168,6.804-15.168,15.167c0,5.708,3.162,10.879,8.251,13.496l-9.78,19.018
	c-12.248-6.298-19.857-18.757-19.857-32.514c0-20.155,16.397-36.552,36.552-36.552s36.552,16.397,36.552,36.552
	C427.466,365.821,419.857,378.279,407.609,384.578z"/>
<path style="fill:#00B4FD;" d="M228.425,435.079h-9.532c-10.957,0-19.921-8.965-19.921-19.921V342.01h49.374v73.147
	C248.347,426.114,239.382,435.079,228.425,435.079z"/>
<path style="fill:#0083F4;" d="M293.106,435.079h-9.532c-10.957,0-19.921-8.965-19.921-19.921V342.01h49.374v73.147
	C313.028,426.114,304.063,435.079,293.106,435.079z"/>
<rect x="224.75" y="187.44" style="fill:#00B4FD;" width="62.51" height="26.484"/>
<rect x="256" y="187.44" style="fill:#0083F4;" width="31.26" height="26.48"/>
<path style="fill:#FFFFFF;" d="M317.087,188.605H194.913c-16.704,0-30.371-13.667-30.371-30.371v-55.862
	c0-16.704,13.667-30.371,30.371-30.371h122.173c16.704,0,30.371,13.667,30.371,30.371v55.862
	C347.458,174.938,333.791,188.605,317.087,188.605z"/>
<path style="fill:#E0E0E2;" d="M347.46,102.37v55.86c0,16.71-13.67,30.37-30.37,30.37H256V72h61.09
	C333.79,72,347.46,85.67,347.46,102.37z"/>
<path style="fill:#FFFFFF;" d="M317.087,350.636H194.913c-16.704,0-30.371-13.667-30.371-30.371V243.42
	c0-16.704,13.667-30.371,30.371-30.371h122.173c16.704,0,30.371,13.667,30.371,30.371v76.845
	C347.458,336.969,333.791,350.636,317.087,350.636z"/>
<path style="fill:#E0E0E2;" d="M347.46,243.42v76.84c0,16.71-13.67,30.38-30.37,30.38H256V213.05h61.09
	C333.79,213.05,347.46,226.72,347.46,243.42z"/>
<rect x="197.1" y="103.66" style="fill:#00B4FD;" width="117.81" height="43.714"/>
<rect x="256" y="103.65" style="fill:#0083F4;" width="58.9" height="43.72"/>
<circle style="fill:#004EB0;" cx="229.55" cy="125.51" r="11.584"/>
<circle style="fill:#003C7D;" cx="282.45" cy="125.51" r="11.584"/>
<g>
</g>
<g>
</g>
<g>
</g>
<g>
</g>
<g>
</g>
<g>
</g>
<g>
</g>
<g>
</g>
<g>
</g>
<g>
</g>
<g>
</g>
<g>
</g>
<g>
</g>
<g>
</g>
<g>
</g>
</svg>
